<svg width="1510" height="825" viewBox="0 0 1510 825" fill="none" xmlns="http://www.w3.org/2000/svg">
<g id="typping_keyboard">
<g id="qwerty_keyboard">
<rect id="right_arrow" x="1408" y="338" width="100" height="69" rx="18" fill="white" stroke="black" stroke-width="4"/>
<rect id="down_arrow" x="1310" y="338" width="85" height="28" rx="14" fill="white" stroke="black" stroke-width="4"/>
<rect id="top_arrow" x="1310" y="379" width="85" height="28" rx="14" fill="white" stroke="black" stroke-width="4"/>
<rect id="left_arrow" x="1201" y="338" width="96" height="69" rx="18" fill="white" stroke="black" stroke-width="4"/>
<rect id="clipboard" x="1103" y="333" width="85" height="69" rx="18" fill="white" stroke="black" stroke-width="4"/>
<rect id="right_alt" x="1004" y="333" width="85" height="69" rx="18" fill="white" stroke="black" stroke-width="4"/>
<rect id="space" x="467" y="338" width="527" height="69" rx="18" fill="white" stroke="black" stroke-width="4"/>
<rect id="left_alt" x="367" y="338" width="85" height="69" rx="18" fill="white" stroke="black" stroke-width="4"/>
<rect id="windows" x="268" y="338" width="85" height="69" rx="18" fill="white" stroke="black" stroke-width="4"/>
<rect id="fn" x="169" y="338" width="85" height="69" rx="18" fill="white" stroke="black" stroke-width="4"/>
<rect id="ctrl" x="2" y="338" width="144" height="69" rx="18" fill="white" stroke="black" stroke-width="4"/>
<rect id="right_shift" x="1231" y="254" width="277" height="69" rx="18" fill="white" stroke="black" stroke-width="4"/>
<path id="slash" d="M1124 272C1124 262.059 1132.06 254 1142 254H1191C1200.94 254 1209 262.059 1209 272V305C1209 314.941 1200.94 323 1191 323H1142C1132.06 323 1124 314.941 1124 305V272Z" fill="white" stroke="black" stroke-width="4"/>
<rect id="dot" x="1025" y="254" width="85" height="69" rx="18" fill="white" stroke="black" stroke-width="4"/>
<rect id="comma" x="926" y="254" width="85" height="69" rx="18" fill="white" stroke="black" stroke-width="4"/>
<rect id="m_letter" x="827" y="254" width="85" height="69" rx="18" fill="white" stroke="black" stroke-width="4"/>
<rect id="n_letter" x="729" y="254" width="85" height="69" rx="18" fill="white" stroke="black" stroke-width="4"/>
<rect id="b_letter" x="632" y="254" width="85" height="69" rx="18" fill="white" stroke="black" stroke-width="4"/>
<rect id="v_letter" x="533" y="254" width="85" height="69" rx="18" fill="white" stroke="black" stroke-width="4"/>
<rect id="c_letter" x="434" y="254" width="85" height="69" rx="18" fill="white" stroke="black" stroke-width="4"/>
<rect id="x_letter" x="335" y="254" width="85" height="69" rx="18" fill="white" stroke="black" stroke-width="4"/>
<rect id="z_letter" x="235" y="254" width="85" height="69" rx="18" fill="white" stroke="black" stroke-width="4"/>
<rect id="left_shift" x="2" y="254" width="202" height="69" rx="18" fill="white" stroke="black" stroke-width="4"/>
<rect id="enter" x="1271" y="170" width="237" height="69" rx="18" fill="white" stroke="black" stroke-width="4"/>
<rect id="cotes" x="1166" y="170" width="85" height="69" rx="18" fill="white" stroke="black" stroke-width="4"/>
<rect id="semicolon" x="1068" y="170" width="85" height="69" rx="18" fill="white" stroke="black" stroke-width="4"/>
<rect id="l_letter" x="969" y="170" width="85" height="69" rx="18" fill="white" stroke="black" stroke-width="4"/>
<rect id="k_letter" x="870" y="170" width="85" height="69" rx="18" fill="white" stroke="black" stroke-width="4"/>
<g id="j_letter">
<rect id="Rectangle 72" x="785" y="219" width="52" height="9" fill="black"/>
<rect id="j" x="771" y="170" width="85" height="69" rx="18" fill="white" stroke="black" stroke-width="4"/>
</g>
<rect id="h_letter" x="672" y="170" width="85" height="69" rx="18" fill="white" stroke="black" stroke-width="4"/>
<rect id="g_letter" x="573" y="170" width="85" height="69" rx="18" fill="white" stroke="black" stroke-width="4"/>
<g id="f_letter">
<rect id="Rectangle 71" x="491" y="219" width="52" height="9" fill="black"/>
<rect id="f" x="475" y="170" width="85" height="69" rx="18" fill="white" stroke="black" stroke-width="4"/>
</g>
<rect id="d_letter" x="378" y="170" width="85" height="69" rx="18" fill="white" stroke="black" stroke-width="4"/>
<rect id="s_letter" x="279" y="170" width="85" height="69" rx="18" fill="white" stroke="black" stroke-width="4"/>
<rect id="a_letter" x="180" y="170" width="85" height="69" rx="18" fill="white" stroke="black" stroke-width="4"/>
<rect id="caps" x="2" y="170" width="156" height="69" rx="18" fill="white" stroke="black" stroke-width="4"/>
<rect id="back_slash" x="1324" y="86" width="184" height="69" rx="18" fill="white" stroke="black" stroke-width="4"/>
<rect id="close_braces" x="1220" y="86" width="85" height="69" rx="18" fill="white" stroke="black" stroke-width="4"/>
<rect id="open_braces" x="1119" y="86" width="85" height="69" rx="18" fill="white" stroke="black" stroke-width="4"/>
<rect id="p_letter" x="1020" y="86" width="85" height="69" rx="18" fill="white" stroke="black" stroke-width="4"/>
<rect id="o_letter" x="921" y="86" width="85" height="69" rx="18" fill="white" stroke="black" stroke-width="4"/>
<rect id="i_letter" x="822" y="86" width="85" height="69" rx="18" fill="white" stroke="black" stroke-width="4"/>
<rect id="u_letter" x="723" y="86" width="85" height="69" rx="18" fill="white" stroke="black" stroke-width="4"/>
<rect id="y_letter" x="624" y="86" width="85" height="69" rx="18" fill="white" stroke="black" stroke-width="4"/>
<rect id="t_letter" x="526" y="86" width="85" height="69" rx="18" fill="white" stroke="black" stroke-width="4"/>
<rect id="r_letter" x="429" y="86" width="85" height="69" rx="18" fill="white" stroke="black" stroke-width="4"/>
<rect id="e_letter" x="335" y="86" width="85" height="69" rx="18" fill="white" stroke="black" stroke-width="4"/>
<rect id="w_letter" x="236" y="86" width="85" height="69" rx="18" fill="white" stroke="black" stroke-width="4"/>
<rect id="q_letter" x="137" y="86" width="85" height="69" rx="18" fill="white" stroke="black" stroke-width="4"/>
<rect id="tab" x="2" y="86" width="120" height="69" rx="18" fill="white" stroke="black" stroke-width="4"/>
<rect id="backspace" x="1296" y="2" width="212" height="69" rx="18" fill="white" stroke="black" stroke-width="4"/>
<rect id="equal" x="1201" y="2" width="86" height="69" rx="18" fill="white" stroke="black" stroke-width="4"/>
<rect id="minus" x="1103" y="2" width="85" height="69" rx="18" fill="white" stroke="black" stroke-width="4"/>
<rect id="0" x="1004" y="2" width="85" height="69" rx="18" fill="white" stroke="black" stroke-width="4"/>
<rect id="9_key" x="905" y="2" width="85" height="69" rx="18" fill="white" stroke="black" stroke-width="4"/>
<rect id="8_key" x="806" y="2" width="85" height="69" rx="18" fill="white" stroke="black" stroke-width="4"/>
<rect id="7_key" x="706" y="2" width="86" height="69" rx="18" fill="white" stroke="black" stroke-width="4"/>
<rect id="6_key" x="607" y="2" width="85" height="69" rx="18" fill="white" stroke="black" stroke-width="4"/>
<rect id="5_key" x="509" y="2" width="85" height="69" rx="18" fill="white" stroke="black" stroke-width="4"/>
<rect id="4_key" x="412" y="2" width="85" height="69" rx="18" fill="white" stroke="black" stroke-width="4"/>
<rect id="3_key" x="312" y="2" width="86" height="69" rx="18" fill="white" stroke="black" stroke-width="4"/>
<rect id="2_key" x="213" y="2" width="85" height="69" rx="18" fill="white" stroke="black" stroke-width="4"/>
<rect id="1_key" x="114" y="2" width="85" height="69" rx="18" fill="white" stroke="black" stroke-width="4"/>
<rect id="tilde" x="2" y="2" width="96" height="69" rx="18" fill="white" stroke="black" stroke-width="4"/>
</g>
<g id="left hand">
<rect  x="253.818" y="530" width="164.903" height="266" transform="rotate(11.8929 253.818 530)" fill="#A5A3FB"/>
<path class="paume" d="M219.664 404.453C221.239 387.96 235.887 375.866 252.38 377.441L467.487 397.986C483.98 399.562 496.074 414.209 494.499 430.703L487.212 506.99C479.964 582.884 412.564 638.531 336.67 631.283C260.777 624.034 205.129 556.634 212.378 480.74L219.664 404.453Z" fill="#918FED"/>
<g class="little finger">
<path  d="M207.95 299.478C206.873 284.8 217.898 272.028 232.576 270.951C247.254 269.873 260.026 280.899 261.103 295.576L265.243 351.977C266.32 366.655 255.295 379.427 240.617 380.504C225.94 381.582 213.168 370.556 212.09 355.879L207.95 299.478Z" fill="#918FED"/>
<g class="little_top">
<path  d="M210.035 223.48C210.524 210.306 221.6 200.022 234.773 200.511C247.947 201 258.231 212.076 257.742 225.249L256.254 265.361C255.765 278.535 244.69 288.818 231.516 288.329C218.342 287.841 208.058 276.765 208.547 263.591L210.035 223.48Z" fill="#A5A3FB"/>
<path  d="M226.489 192.193C227.551 184.354 234.766 178.861 242.604 179.923C250.442 180.985 255.935 188.2 254.873 196.038L252.307 214.981C251.245 222.819 244.03 228.313 236.192 227.251C228.354 226.189 222.861 218.974 223.922 211.136L226.489 192.193Z" fill="#E0E0E0"/>
</g>
</g>
<g class="major finger">
<path d="M294.7 293.12C295.708 277.037 309.562 264.817 325.645 265.825C341.727 266.833 353.947 280.687 352.939 296.77L349.064 358.609C348.056 374.691 334.202 386.912 318.119 385.904C302.037 384.896 289.817 371.041 290.825 354.959L294.7 293.12Z" fill="#918FED"/>
<g class="major_top">
<path  d="M308.533 202.505C310.419 189.277 322.672 180.082 335.9 181.968C349.128 183.855 358.323 196.107 356.437 209.335L349.622 257.127C347.736 270.355 335.484 279.549 322.255 277.663C309.027 275.777 299.833 263.525 301.719 250.296L308.533 202.505Z" fill="#A5A3FB"/>
<path  d="M318.566 182.861C319.35 174.653 326.639 168.635 334.846 169.419C343.053 170.203 349.071 177.492 348.287 185.699L346.14 208.185C345.356 216.392 338.067 222.41 329.86 221.626C321.652 220.843 315.634 213.554 316.418 205.346L318.566 182.861Z" fill="#E0E0E0"/>
</g>
</g>
<g class="midle finger">
<path  d="M376.715 300.517C378.313 285.32 391.929 274.296 407.126 275.894C422.323 277.492 433.348 291.108 431.75 306.305L424.928 371.175C423.329 386.372 409.714 397.396 394.517 395.798C379.319 394.2 368.295 380.584 369.893 365.387L376.715 300.517Z" fill="#918FED"/>
<g class="midle_top">
<path  d="M393.006 210.7C395.56 197.051 408.694 188.056 422.344 190.609C435.993 193.162 444.988 206.297 442.435 219.946L433.947 265.325C431.393 278.975 418.259 287.97 404.609 285.417C390.96 282.863 381.965 269.729 384.518 256.079L393.006 210.7Z" fill="#A5A3FB"/>
<path  d="M402.806 191.065C403.599 182.771 410.964 176.69 419.258 177.482C427.552 178.274 433.633 185.64 432.841 193.933L430.726 216.081C429.934 224.375 422.568 230.456 414.274 229.664C405.98 228.872 399.899 221.506 400.691 213.212L402.806 191.065Z" fill="#E0E0E0"/>
</g>
</g>
<g class="index finger">
<path class d="M462.842 312.262C466.501 297.204 481.675 287.963 496.733 291.622C511.791 295.282 521.031 310.455 517.372 325.513L504.684 377.725C501.025 392.783 485.852 402.023 470.794 398.364C455.736 394.705 446.495 379.532 450.154 364.474L462.842 312.262Z" fill="#918FED"/>
<g class="index_top">
<path  d="M483.751 226.591C485.76 213.562 497.95 204.628 510.979 206.637C524.008 208.645 532.942 220.835 530.934 233.864L524.819 273.535C522.81 286.564 510.62 295.498 497.591 293.489C484.562 291.481 475.628 279.291 477.636 266.261L483.751 226.591Z" fill="#A5A3FB"/>
<path  d="M494.179 205.257C494.931 197.383 501.924 191.61 509.798 192.362C517.672 193.114 523.445 200.107 522.693 207.98L520.875 227.01C520.123 234.884 513.131 240.657 505.257 239.905C497.383 239.153 491.609 232.161 492.361 224.287L494.179 205.257Z" fill="#E0E0E0"/>
</g>
</g>
<g class="big finger">
<g class="big_top">
<path  d="M538.907 365.872C550.247 353.792 567.557 354.702 577.569 367.903L584.123 376.544C594.135 389.745 593.058 410.239 581.718 422.319L547.345 458.932C536.004 471.012 518.695 470.102 508.683 456.901L502.129 448.26C492.117 435.059 493.193 414.565 504.534 402.485L538.907 365.872Z" fill="#918FED"/>
<path  d="M566.922 364.644C573.339 354.189 586.165 352.098 595.57 359.975C604.975 367.853 607.397 382.714 600.98 393.17L592.301 407.31C585.884 417.766 573.058 419.856 563.653 411.979C554.248 404.102 551.826 389.241 558.243 378.785L566.922 364.644Z" fill="#E0E0E0"/>
</g>
</g>
</g>
<g id="right hand">
<rect  width="164.828" height="265.995" transform="matrix(-0.978515 0.206177 0.205989 0.978554 1087.61 526)" fill="#A5A3FB"/>
<path class="paume" d="M1121.75 400.453C1120.17 383.96 1105.53 371.867 1089.03 373.443L874.056 393.985C857.563 395.561 845.469 410.209 847.043 426.703L854.332 503.054C861.574 578.912 928.939 634.531 1004.8 627.283C1080.65 620.034 1136.28 552.663 1129.04 476.805L1121.75 400.453Z" fill="#918FED"/>
<g class="little finger">
<path  d="M1133.46 295.466C1134.53 280.795 1123.51 268.028 1108.84 266.951C1094.17 265.873 1081.41 276.893 1080.33 291.564L1076.19 347.99C1075.11 362.66 1086.13 375.427 1100.8 376.504C1115.48 377.582 1128.24 366.562 1129.32 351.891L1133.46 295.466Z" fill="#918FED"/>
<g class="little_top">
<path  d="M1131.37 219.469C1130.88 206.301 1119.81 196.023 1106.65 196.511C1093.48 197 1083.2 208.071 1083.69 221.239L1085.18 261.372C1085.66 274.54 1096.73 284.818 1109.9 284.33C1123.07 283.841 1133.35 272.77 1132.86 259.602L1131.37 219.469Z" fill="#A5A3FB"/>
<path  d="M1114.92 188.187C1113.86 180.352 1106.65 174.861 1098.82 175.923C1090.98 176.985 1085.49 184.197 1086.55 192.032L1089.12 210.988C1090.18 218.822 1097.39 224.313 1105.23 223.251C1113.06 222.189 1118.55 214.977 1117.49 207.142L1114.92 188.187Z" fill="#E0E0E0"/>
</g>
</g>
<g class="major finger">
<path  d="M1046.75 289.106C1045.74 273.031 1031.89 260.817 1015.82 261.825C999.743 262.833 987.528 276.681 988.535 292.756L992.41 354.623C993.417 370.697 1007.26 382.912 1023.34 381.904C1039.41 380.896 1051.63 367.048 1050.62 350.973L1046.75 289.106Z" fill="#918FED"/>
<g class="major_top">
<path  d="M1032.92 198.494C1031.03 185.272 1018.79 176.082 1005.57 177.968C992.345 179.855 983.154 192.102 985.038 205.324L991.853 253.138C993.737 266.36 1005.98 275.549 1019.21 273.663C1032.43 271.777 1041.62 259.529 1039.73 246.307L1032.92 198.494Z" fill="#A5A3FB"/>
<path  d="M1022.89 178.854C1022.11 170.65 1014.82 164.635 1006.62 165.419C998.417 166.203 992.402 173.489 993.185 181.692L995.333 204.192C996.116 212.396 1003.4 218.41 1011.6 217.626C1019.81 216.843 1025.82 209.557 1025.04 201.353L1022.89 178.854Z" fill="#E0E0E0"/>
</g>
</g>
<g class="midle finger">
<path  d="M964.77 296.504C963.173 281.314 949.564 270.295 934.374 271.894C919.184 273.492 908.164 287.102 909.761 302.292L916.583 367.187C918.179 382.377 931.788 393.396 946.978 391.797C962.168 390.199 973.188 376.59 971.591 361.399L964.77 296.504Z" fill="#918FED"/>
<g class="midle_top">
<path  d="M948.485 206.688C945.935 193.045 932.807 184.055 919.164 186.608C905.521 189.162 896.529 202.291 899.08 215.934L907.569 261.336C910.12 274.979 923.247 283.969 936.89 281.416C950.533 278.863 959.525 265.733 956.974 252.09L948.485 206.688Z" fill="#A5A3FB"/>
<path  d="M938.691 187.057C937.9 178.767 930.538 172.689 922.248 173.481C913.958 174.273 907.879 181.636 908.671 189.926L910.786 212.087C911.578 220.377 918.94 226.456 927.23 225.663C935.52 224.871 941.598 217.509 940.807 209.219L938.691 187.057Z" fill="#E0E0E0"/>
</g>
</g>
<g class="index finger">
<path  d="M878.682 308.25C875.026 293.198 859.861 283.963 844.811 287.622C829.76 291.282 820.522 306.449 824.178 321.501L836.866 373.737C840.522 388.788 855.687 398.023 870.737 394.364C885.788 390.705 895.026 375.537 891.37 360.486L878.682 308.25Z" fill="#918FED"/>
<g class="index_top">
<path  d="M857.784 222.58C855.777 209.557 843.593 200.628 830.57 202.637C817.547 204.645 808.617 216.83 810.623 229.853L816.739 269.546C818.746 282.569 830.929 291.498 843.952 289.489C856.975 287.481 865.906 275.295 863.899 262.272L857.784 222.58Z" fill="#A5A3FB"/>
<path  d="M847.362 201.25C846.611 193.38 839.622 187.61 831.752 188.362C823.881 189.114 818.11 196.104 818.862 203.974L820.68 223.017C821.431 230.887 828.42 236.657 836.29 235.905C844.161 235.153 849.932 228.164 849.18 220.293L847.362 201.25Z" fill="#E0E0E0"/>
</g>
</g>
<g class="big finger">
<g class="big_top">
<path  d="M802.662 361.877C791.324 349.795 774.019 350.704 764.01 363.907L757.466 372.54C747.457 385.743 748.533 406.242 759.871 418.324L794.219 454.927C805.556 467.01 822.861 466.101 832.87 452.897L839.414 444.264C849.424 431.061 848.347 410.563 837.009 398.48L802.662 361.877Z" fill="#918FED"/>
<path  d="M774.653 360.641C768.24 350.187 755.421 348.098 746.021 355.975C736.62 363.853 734.199 378.713 740.612 389.167L749.29 403.313C755.703 413.767 768.522 415.856 777.923 407.979C787.323 400.102 789.744 385.242 783.331 374.788L774.653 360.641Z" fill="#E0E0E0"/>
</g>
</g>
</g>
</g>
</svg>
